<svg width="361" height="364" viewBox="0 0 361 364" fill="none" xmlns="http://www.w3.org/2000/svg">
<path d="M61.4269 51.2396L111.747 1.86258L122.463 12.7832L109.386 57.1385L153.981 44.9028L164.416 55.5379L114.096 104.915L102.469 93.0663L129.807 66.2417L98.6163 74.2907L91.6125 67.153L100.105 36.5436L73.0532 63.0881L61.4269 51.2396ZM123.186 114.179L173.506 64.8018L208.386 100.347L198.25 110.293L175.698 87.3096L166.133 96.6947L187.075 118.036L176.939 127.982L155.998 106.64L145.648 116.796L168.2 139.779L158.065 149.724L123.186 114.179ZM178.176 170.22L217.79 131.348L202.101 115.36L212.808 104.854L257.072 149.964L246.365 160.47L230.677 144.482L191.063 183.353L178.176 170.22ZM211.623 204.306L261.943 154.929L285.686 179.126C291.29 184.836 294.205 190.615 294.432 196.463C294.754 202.311 292.441 207.664 287.492 212.52C283.733 216.208 279.634 218.362 275.197 218.98C270.854 219.599 266.432 218.614 261.931 216.026C263.832 219.391 264.101 223.33 262.738 227.842L256.167 249.702L242.019 235.283L249.463 210.887C249.902 209.335 249.892 207.897 249.433 206.573C249.021 205.296 248.255 204.087 247.134 202.945L243.282 199.019L224.51 217.439L211.623 204.306ZM252.561 189.914L261.106 198.622C266.195 203.809 270.786 204.394 274.878 200.379C278.923 196.41 278.401 191.832 273.311 186.646L264.766 177.938L252.561 189.914ZM283.76 279.392C278.764 274.3 275.445 268.777 273.804 262.821C272.258 256.867 272.385 250.904 274.186 244.934C275.987 238.964 279.48 233.434 284.667 228.345C289.901 223.209 295.473 219.797 301.382 218.108C307.385 216.421 313.348 216.454 319.271 218.207C325.195 219.96 330.654 223.382 335.651 228.474C340.647 233.565 343.942 239.065 345.536 244.973C347.176 250.929 347.096 256.891 345.296 262.861C343.542 268.785 340.049 274.315 334.814 279.451C329.628 284.54 324.033 287.929 318.03 289.616C312.027 291.304 306.04 291.294 300.069 289.588C294.192 287.882 288.756 284.483 283.76 279.392ZM294.752 268.606C298.394 272.317 302.55 273.936 307.222 273.462C311.988 272.988 316.726 270.44 321.437 265.818C326.148 261.195 328.785 256.553 329.347 251.891C329.91 247.229 328.347 243.019 324.658 239.26C320.97 235.501 316.79 233.858 312.118 234.333C307.446 234.807 302.755 237.355 298.044 241.978C293.333 246.6 290.673 251.266 290.063 255.974C289.5 260.636 291.063 264.847 294.752 268.606ZM1.33034 109.929L51.6509 60.552L61.1061 70.1878L54.9623 121.609L83.7985 93.3139L95.705 105.448L45.3844 154.825L35.9993 145.26L42.1431 93.8389L13.3069 122.134L1.33034 109.929ZM77.4341 189.058C72.438 183.966 69.1196 178.443 67.4788 172.487C65.9324 166.533 66.0595 160.57 67.8603 154.6C69.6611 148.63 73.1548 143.1 78.3415 138.011C83.5758 132.875 89.1474 129.462 95.0562 127.774C101.059 126.087 107.022 126.12 112.946 127.873C118.869 129.626 124.329 133.048 129.325 138.14C134.321 143.231 137.616 148.731 139.21 154.639C140.851 160.595 140.771 166.557 138.97 172.527C137.217 178.451 133.723 183.98 128.489 189.117C123.302 194.206 117.707 197.595 111.704 199.282C105.701 200.969 99.7142 200.96 93.7432 199.253C87.8665 197.548 82.4302 194.149 77.4341 189.058ZM88.4261 178.272C92.0681 181.983 96.2249 183.602 100.897 183.128C105.662 182.654 110.401 180.106 115.112 175.484C119.822 170.861 122.459 166.219 123.022 161.557C123.585 156.895 122.022 152.685 118.333 148.926C114.644 145.167 110.464 143.524 105.793 143.999C101.121 144.473 96.4297 147.021 91.7188 151.644C87.008 156.266 84.3474 160.932 83.7371 165.64C83.1744 170.302 84.7374 174.513 88.4261 178.272ZM111.042 221.737L161.363 172.36L172.078 183.281L159.001 227.636L203.596 215.4L214.031 226.036L163.711 275.413L152.084 263.564L179.422 236.739L148.231 244.788L141.228 237.651L149.72 207.041L122.668 233.586L111.042 221.737ZM172.801 284.677L223.122 235.3L258.001 270.845L247.865 280.791L225.313 257.807L215.748 267.192L236.69 288.534L226.554 298.48L205.613 277.138L195.263 287.293L217.816 310.277L207.68 320.222L172.801 284.677Z" fill="black"/>
</svg>
